# xmcd CD database file
#
# Track frame offsets:
#	150
#	44540
#	65713
#	91190
#	133150
#	158259
#	179089
#	203132
#	232075
#
# Disc length: 3495 seconds
#
# Revision: 0
# Processed by: cddbd v1.5.1PL0 Copyright (c) Steve Scherf et al.
# Submitted via: CDex 1.51
#
DISCID=7e0da509
DTITLE=Horacio Malvicino - Jazz Quinteto
DYEAR=1964
DGENRE=Jazz
TTITLE0=Misty
TTITLE1=Todo lo que Tú eres
TTITLE2=Cartas a mi amada
TTITLE3=Improvisaciones sobre blues
TTITLE4=3x4=5
TTITLE5=Yesterdays
TTITLE6=Caravana
TTITLE7=Abrazame
TTITLE8=Tune up
EXTD=YEAR: 1964
EXTT0=
EXTT1=
EXTT2=
EXTT3=
EXTT4=
EXTT5=
EXTT6=
EXTT7=
EXTT8=
PLAYORDER=
